<svg width="18" height="19" viewBox="0 0 18 19" fill="none" xmlns="http://www.w3.org/2000/svg">
<g id="Vector">
<path d="M15.75 0C16.3467 0 16.919 0.250223 17.341 0.695621C17.7629 1.14102 18 1.74511 18 2.375V16.625C18 17.2549 17.7629 17.859 17.341 18.3044C16.919 18.7498 16.3467 19 15.75 19H2.25C1.65326 19 1.08097 18.7498 0.65901 18.3044C0.237053 17.859 0 17.2549 0 16.625V2.375C0 1.74511 0.237053 1.14102 0.65901 0.695621C1.08097 0.250223 1.65326 0 2.25 0L15.75 0ZM6.642 12.8286L11.25 7.96456V11.2516C11.25 11.409 11.3093 11.5601 11.4148 11.6714C11.5202 11.7828 11.6633 11.8453 11.8125 11.8453C11.9617 11.8453 12.1048 11.7828 12.2102 11.6714C12.3157 11.5601 12.375 11.409 12.375 11.2516V6.53125C12.375 6.37378 12.3157 6.22276 12.2102 6.11141C12.1048 6.00006 11.9617 5.9375 11.8125 5.9375H7.34063C7.19144 5.9375 7.04837 6.00006 6.94288 6.11141C6.83739 6.22276 6.77813 6.37378 6.77813 6.53125C6.77813 6.68872 6.83739 6.83974 6.94288 6.95109C7.04837 7.06244 7.19144 7.125 7.34063 7.125H10.4546L5.84662 11.989C5.74416 12.101 5.68746 12.251 5.68875 12.4066C5.69003 12.5623 5.74918 12.7112 5.85348 12.8213C5.95777 12.9314 6.09885 12.9939 6.24634 12.9952C6.39382 12.9966 6.53591 12.9367 6.642 12.8286Z" fill="#C9C9D4"/>
<path d="M15.75 0C16.3467 0 16.919 0.250223 17.341 0.695621C17.7629 1.14102 18 1.74511 18 2.375V16.625C18 17.2549 17.7629 17.859 17.341 18.3044C16.919 18.7498 16.3467 19 15.75 19H2.25C1.65326 19 1.08097 18.7498 0.65901 18.3044C0.237053 17.859 0 17.2549 0 16.625V2.375C0 1.74511 0.237053 1.14102 0.65901 0.695621C1.08097 0.250223 1.65326 0 2.25 0L15.75 0ZM6.642 12.8286L11.25 7.96456V11.2516C11.25 11.409 11.3093 11.5601 11.4148 11.6714C11.5202 11.7828 11.6633 11.8453 11.8125 11.8453C11.9617 11.8453 12.1048 11.7828 12.2102 11.6714C12.3157 11.5601 12.375 11.409 12.375 11.2516V6.53125C12.375 6.37378 12.3157 6.22276 12.2102 6.11141C12.1048 6.00006 11.9617 5.9375 11.8125 5.9375H7.34063C7.19144 5.9375 7.04837 6.00006 6.94288 6.11141C6.83739 6.22276 6.77813 6.37378 6.77813 6.53125C6.77813 6.68872 6.83739 6.83974 6.94288 6.95109C7.04837 7.06244 7.19144 7.125 7.34063 7.125H10.4546L5.84662 11.989C5.74416 12.101 5.68746 12.251 5.68875 12.4066C5.69003 12.5623 5.74918 12.7112 5.85348 12.8213C5.95777 12.9314 6.09885 12.9939 6.24634 12.9952C6.39382 12.9966 6.53591 12.9367 6.642 12.8286Z" fill="#C9C9D4"/>
<path d="M15.75 0C16.3467 0 16.919 0.250223 17.341 0.695621C17.7629 1.14102 18 1.74511 18 2.375V16.625C18 17.2549 17.7629 17.859 17.341 18.3044C16.919 18.7498 16.3467 19 15.75 19H2.25C1.65326 19 1.08097 18.7498 0.65901 18.3044C0.237053 17.859 0 17.2549 0 16.625V2.375C0 1.74511 0.237053 1.14102 0.65901 0.695621C1.08097 0.250223 1.65326 0 2.25 0L15.75 0ZM6.642 12.8286L11.25 7.96456V11.2516C11.25 11.409 11.3093 11.5601 11.4148 11.6714C11.5202 11.7828 11.6633 11.8453 11.8125 11.8453C11.9617 11.8453 12.1048 11.7828 12.2102 11.6714C12.3157 11.5601 12.375 11.409 12.375 11.2516V6.53125C12.375 6.37378 12.3157 6.22276 12.2102 6.11141C12.1048 6.00006 11.9617 5.9375 11.8125 5.9375H7.34063C7.19144 5.9375 7.04837 6.00006 6.94288 6.11141C6.83739 6.22276 6.77813 6.37378 6.77813 6.53125C6.77813 6.68872 6.83739 6.83974 6.94288 6.95109C7.04837 7.06244 7.19144 7.125 7.34063 7.125H10.4546L5.84662 11.989C5.74416 12.101 5.68746 12.251 5.68875 12.4066C5.69003 12.5623 5.74918 12.7112 5.85348 12.8213C5.95777 12.9314 6.09885 12.9939 6.24634 12.9952C6.39382 12.9966 6.53591 12.9367 6.642 12.8286Z" fill="#C9C9D4"/>
</g>
</svg>
